<svg width="80" height="80" viewBox="0 0 80 80" fill="none" xmlns="http://www.w3.org/2000/svg">
<path d="M37.04 25.7081C37.1329 17.2519 39.8436 10.4688 46.4061 10.4688" stroke="black" stroke-miterlimit="10" stroke-linejoin="round"/>
<path d="M71.9 40.1563H2.34375V55.7812H71.4062C74.8581 55.7812 77.6562 52.9831 77.6562 49.5313V34.5" fill="#FF950A"/>
<path d="M71.9 40.1563H2.34375V55.7812H71.4062C74.8581 55.7812 77.6562 52.9831 77.6562 49.5313V34.5" stroke="black" stroke-miterlimit="10" stroke-linejoin="round"/>
<path d="M31.1631 4.1296C37.1418 7.58148 38.8634 15.7924 38.8634 15.7924C38.8634 15.7924 30.8918 18.4068 24.9131 14.9549C18.9343 11.5032 17.2128 3.29241 17.2128 3.29241C17.2128 3.29241 25.1843 0.677883 31.1631 4.1296Z" stroke="black" stroke-miterlimit="10" stroke-linejoin="round"/>
<path d="M71.4056 40.1562C74.8575 40.1562 77.6556 37.358 77.6556 33.9063C77.6556 30.4544 74.8575 27.6563 71.4056 27.6563H62.3718" stroke="black" stroke-miterlimit="10" stroke-linejoin="round"/>
<path d="M9.07776 55.7813C12.6465 67.5109 21.0446 77.6562 27.6562 77.6562C29.6985 77.6562 31.3863 76.6877 32.7731 75.0033C34.9893 72.3114 39.0732 72.3114 41.2893 75.0033C42.676 76.6877 44.364 77.6562 46.4062 77.6562C53.0179 77.6562 61.416 67.5109 64.9848 55.7813H9.07776Z" stroke="black" stroke-miterlimit="10" stroke-linejoin="round"/>
<path d="M66.4711 40.1562C65.1931 27.7342 58.8035 21.4062 51.0938 21.4062C48.44 21.4062 45.9433 22.1581 43.7578 23.6498C39.7366 26.3952 34.326 26.3952 30.3047 23.6498C28.1192 22.1581 25.6225 21.4062 22.9688 21.4062C15.2591 21.4062 8.8694 27.7342 7.59143 40.1562H66.4711Z" stroke="black" stroke-miterlimit="10" stroke-linejoin="round"/>
<path d="M12.0312 55.7812V51.0938" stroke="black" stroke-miterlimit="10" stroke-linejoin="round"/>
<path d="M21.4062 55.7812V49.5313" stroke="black" stroke-miterlimit="10" stroke-linejoin="round"/>
<path d="M30.7812 55.7812V51.0938" stroke="black" stroke-miterlimit="10" stroke-linejoin="round"/>
<path d="M40.1562 55.7812V49.5313" stroke="black" stroke-miterlimit="10" stroke-linejoin="round"/>
<path d="M49.5312 55.7812V51.0938" stroke="black" stroke-miterlimit="10" stroke-linejoin="round"/>
<path d="M68.2812 55.7812V51.0938" stroke="black" stroke-miterlimit="10" stroke-linejoin="round"/>
<path d="M58.9062 55.7812V49.5313" stroke="black" stroke-miterlimit="10" stroke-linejoin="round"/>
</svg>
