<svg width="80" height="80" viewBox="0 0 80 80" fill="none" xmlns="http://www.w3.org/2000/svg">
<g clip-path="url(#clip0_25_131)">
<path d="M74.2965 24.2184C76.3416 26.2636 76.3416 29.5793 74.2965 31.6243C72.2515 33.6695 68.9355 33.6695 66.8905 31.6243L48.3755 13.1095C46.3305 11.0643 46.3305 7.74855 48.3755 5.70355C50.4207 3.6584 53.7365 3.6584 55.7816 5.70355L74.2965 24.2184Z" fill="#FF950A" stroke="black" stroke-miterlimit="10" stroke-linejoin="round"/>
<path d="M60.1899 10.1117C58.1449 8.06674 58.1449 4.7508 60.1899 2.7058C62.235 0.660645 65.5508 0.660645 67.5958 2.7058L77.1178 12.2277C79.1628 14.2728 79.1628 17.5886 77.1178 19.6336C75.0727 21.6788 71.7569 21.6788 69.7118 19.6336L60.1899 10.1117Z" stroke="black" stroke-miterlimit="10" stroke-linejoin="round"/>
<path d="M38.3087 48.4801L25.7612 61.0276L18.9724 54.2387L54.239 18.9723L61.0277 25.761L34.4101 52.3787" stroke="black" stroke-miterlimit="10" stroke-linejoin="round"/>
<path d="M5.70354 55.7816C3.65839 53.7365 3.65839 50.4207 5.70354 48.3757C7.74854 46.3305 11.0645 46.3305 13.1095 48.3757L31.6245 66.8905C33.6695 68.9357 33.6695 72.2515 31.6245 74.2965C29.5793 76.3416 26.2635 76.3416 24.2184 74.2965L5.70354 55.7816Z" fill="#FF950A" stroke="black" stroke-miterlimit="10" stroke-linejoin="round"/>
<path d="M19.8101 69.8882C21.8551 71.9332 21.8551 75.2491 19.8101 77.2941C17.765 79.3393 14.4492 79.3393 12.4042 77.2941L2.88214 67.7723C0.837139 65.7271 0.837139 62.4113 2.88214 60.3663C4.92729 58.3212 8.24308 58.3212 10.2882 60.3663L19.8101 69.8882Z" stroke="black" stroke-miterlimit="10" stroke-linejoin="round"/>
<path d="M24.2183 5.7034C26.2633 3.65824 29.5791 3.65824 31.6242 5.7034C33.6692 7.74855 33.6692 11.0643 31.6242 13.1093L13.1092 31.6243C11.0642 33.6693 7.74846 33.6693 5.70331 31.6243C3.65831 29.5792 3.65831 26.2634 5.70331 24.2184L24.2183 5.7034Z" fill="#FF950A" stroke="black" stroke-miterlimit="10" stroke-linejoin="round"/>
<path d="M5.13672 9.97301L12.2277 2.88207C14.2728 0.836914 17.5884 0.836914 19.6336 2.88207C21.6787 4.92707 21.6787 8.24285 19.6336 10.288L10.1117 19.8099C8.06656 21.855 4.75078 21.855 2.70562 19.8099C0.660625 17.7649 0.660625 14.4491 2.70562 12.4041L7.56781 7.54191" stroke="black" stroke-miterlimit="10" stroke-linejoin="round"/>
<path d="M39.9569 33.1682L33.1682 39.9569L18.9724 25.7613L25.7612 18.9724L39.9569 33.1682Z" stroke="black" stroke-miterlimit="10" stroke-linejoin="round"/>
<path d="M60.9726 54.1838L54.1838 60.9725L39.988 46.7769L46.7768 39.988L60.9726 54.1838Z" stroke="black" stroke-miterlimit="10" stroke-linejoin="round"/>
<path d="M55.7817 74.2967C53.7367 76.3419 50.4209 76.3419 48.3758 74.2967C46.3308 72.2515 46.3308 68.9358 48.3758 66.8908L66.8908 48.3758C68.9358 46.3308 72.2516 46.3308 74.2967 48.3758C76.3417 50.4209 76.3417 53.7367 74.2967 55.7817L55.7817 74.2967Z" fill="#FF950A" stroke="black" stroke-miterlimit="10" stroke-linejoin="round"/>
<path d="M69.8883 60.19C71.9334 58.145 75.2492 58.145 77.2942 60.19C79.3394 62.2352 79.3394 65.551 77.2942 67.596L67.7723 77.118C65.7272 79.163 62.4114 79.163 60.3664 77.118C58.3212 75.0728 58.3212 71.757 60.3664 69.7119L69.8883 60.19Z" stroke="black" stroke-miterlimit="10" stroke-linejoin="round"/>
</g>
<defs>
<clipPath id="clip0_25_131">
<rect width="80" height="80" fill="white"/>
</clipPath>
</defs>
</svg>
