<svg width="85" height="85" viewBox="0 0 85 85" fill="none" xmlns="http://www.w3.org/2000/svg">
<g id="running">
<path id="Vector 4" d="M21.4625 39.8438L6.2688 24.65L22.525 8.5C22.7375 10.1646 23.7788 14.1313 26.2438 16.6813C33.3838 26.9663 26.0313 36.4083 21.4625 39.8438Z" fill="#FF950A"/>
<path id="Vector" d="M6.02588 24.6139L51.1844 69.7672H82.5098" stroke="black" stroke-miterlimit="10" stroke-linejoin="round"/>
<path id="Vector_2" d="M55.4101 36.9221H45.8473" stroke="black" stroke-miterlimit="10" stroke-linejoin="round"/>
<path id="Vector_3" d="M24.6654 5.97644L4.54846 26.0918C1.80953 28.8305 1.80953 33.2711 4.54846 36.0097L47.3937 78.851H82.5097V68.5847C82.5097 61.8269 77.0314 56.3483 70.2733 56.3483H69.1838C63.2842 56.3483 58.2246 52.1388 57.1516 46.3376L53.3887 25.9943L52.7275 25.3332C50.5161 23.1222 46.9312 23.1222 44.7198 25.3334L44.1979 25.8552C41.8463 28.2066 38.0335 28.2066 35.6819 25.855L24.4925 14.6655C22.1407 12.3138 22.1408 8.50088 24.4926 6.14926L24.6654 5.97644Z" stroke="black" stroke-miterlimit="10" stroke-linejoin="round"/>
<path id="Vector_4" d="M57.2284 46.7184H48.2964" stroke="black" stroke-miterlimit="10" stroke-linejoin="round"/>
<path id="Vector_5" d="M47.3937 78.851H0" stroke="black" stroke-miterlimit="10" stroke-linejoin="round"/>
<path id="Vector_6" d="M23.6345 68.8893H8.30127" stroke="black" stroke-miterlimit="10" stroke-linejoin="round"/>
<path id="Vector_7" d="M15.3332 58.9277H0" stroke="black" stroke-miterlimit="10" stroke-linejoin="round"/>
<path id="Vector_8" d="M21.4755 40.0617L24.4926 37.0445C30.6724 30.8647 30.6724 20.8452 24.4926 14.6654" stroke="black" stroke-miterlimit="10" stroke-linejoin="round"/>
</g>
</svg>
