<svg width="80" height="80" viewBox="0 0 80 80" fill="none" xmlns="http://www.w3.org/2000/svg">
<path d="M77.6562 72.9688C77.6562 75.5575 75.5575 77.6562 72.9687 77.6562H7.03125C4.4425 77.6562 2.34375 75.5575 2.34375 72.9688V7.03126C2.34375 4.44251 4.4425 2.34376 7.03125 2.34376H72.9687C75.5575 2.34376 77.6562 4.44251 77.6562 7.03126V72.9688Z" stroke="black" stroke-miterlimit="10" stroke-linejoin="round"/>
<path d="M54.0625 30.4688L53.3408 30.2281C44.6811 27.3416 35.3189 27.3416 26.6592 30.2281L25.9375 30.4688L21.25 16.4062L23.2295 15.4166C33.7867 10.1378 46.2133 10.1378 56.7705 15.4166L58.75 16.4062L54.0625 30.4688Z" fill="#FF950A" stroke="black" stroke-miterlimit="10" stroke-linejoin="round"/>
<path d="M57.1875 21.0938H68.2812V68.2812H11.7188V21.0938H22.8125" stroke="black" stroke-miterlimit="10" stroke-linejoin="round"/>
<path d="M40 37.5945V68.2812" stroke="black" stroke-miterlimit="10" stroke-linejoin="round"/>
<path d="M18.9062 40H32.9688" stroke="black" stroke-miterlimit="10" stroke-linejoin="round"/>
<path d="M18.9062 49.375H32.9688" stroke="black" stroke-miterlimit="10" stroke-linejoin="round"/>
<path d="M18.9062 58.75H32.9688" stroke="black" stroke-miterlimit="10" stroke-linejoin="round"/>
<path d="M47.0312 40H61.0938" stroke="black" stroke-miterlimit="10" stroke-linejoin="round"/>
<path d="M47.0312 49.375H61.0938" stroke="black" stroke-miterlimit="10" stroke-linejoin="round"/>
<path d="M47.0312 58.75H61.0938" stroke="black" stroke-miterlimit="10" stroke-linejoin="round"/>
<path d="M40 18.75V28.0632" stroke="black" stroke-miterlimit="10" stroke-linejoin="round"/>
</svg>
